HIERARCHY
ROOT root
{
	OFFSET	0	13.1	24.9
	CHANNELS 6  Xposition Yposition Zposition Xrotation Yrotation Zrotation
	JOINT spine_1
	{
		OFFSET	0	9.99999	0
		CHANNELS 3  Xrotation Yrotation Zrotation
		JOINT spine_2
		{
			OFFSET	0	112	-10
			CHANNELS 3  Xrotation Yrotation Zrotation
			JOINT spine_3
			{
				OFFSET	0	206.5	19.3
				CHANNELS 3  Xrotation Yrotation Zrotation
				JOINT spine_4
				{
					OFFSET	0	110.4	14.6
					CHANNELS 3  Xrotation Yrotation Zrotation
					JOINT neck_1
					{
						OFFSET	0	71.8	-50.3
						CHANNELS 3  Xrotation Yrotation Zrotation
						JOINT neck_2
						{
							OFFSET	0	86.2	-25.8
							CHANNELS 3  Xrotation Yrotation Zrotation
							JOINT head_ee
							{
								OFFSET	0	179.8	-8.7
								CHANNELS 3  Xrotation Yrotation Zrotation
								End Site
								{
									OFFSET	1	0	0
								}
							}
						}
					}
					JOINT left_clavicle
					{
						OFFSET	-43.2	22.4	-70.8
						CHANNELS 3  Xrotation Yrotation Zrotation
						JOINT left_shoulder
						{
							OFFSET	-93.9	-5.79999	48.7
							CHANNELS 3  Xrotation Yrotation Zrotation
							JOINT left_elbow
							{
								OFFSET	-291.4	-30.8	15.2
								CHANNELS 3  Xrotation Yrotation Zrotation
								JOINT left_lowarm_twist
								{
									OFFSET	-110.7	-3.89999	13.6
									CHANNELS 3  Xrotation Yrotation Zrotation
									JOINT left_hand
									{
										OFFSET	-110.7	-3.89999	13.6
										CHANNELS 3  Xrotation Yrotation Zrotation
										JOINT left_ee
										{
											OFFSET	-80.8	-5.10001	12.1
											CHANNELS 3  Xrotation Yrotation Zrotation
											End Site
											{
												OFFSET	1	0	0
											}
										}
									}
								}
							}
						}
					}
					JOINT right_clavicle
					{
						OFFSET	43.2	22.4	-70.8
						CHANNELS 3  Xrotation Yrotation Zrotation
						JOINT right_shoulder
						{
							OFFSET	93.9	-5.79999	48.7
							CHANNELS 3  Xrotation Yrotation Zrotation
							JOINT right_elbow
							{
								OFFSET	291.4	-30.8	15.2
								CHANNELS 3  Xrotation Yrotation Zrotation
								JOINT right_lowarm_twist
								{
									OFFSET	110.7	-3.89999	13.6
									CHANNELS 3  Xrotation Yrotation Zrotation
									JOINT right_hand
									{
										OFFSET	110.7	-3.89999	13.6
										CHANNELS 3  Xrotation Yrotation Zrotation
										JOINT right_ee
										{
											OFFSET	80.8	-5.10001	12.1
											CHANNELS 3  Xrotation Yrotation Zrotation
											End Site
											{
												OFFSET	1	0	0
											}
										}
									}
								}
							}
						}
					}
				}
			}
		}
	}
	JOINT left_hip
	{
		OFFSET	-82.8	-127.5	0.300001
		CHANNELS 3  Xrotation Yrotation Zrotation
		JOINT left_knee
		{
			OFFSET	-28.2	-396.7	2.2
			CHANNELS 3  Xrotation Yrotation Zrotation
			JOINT left_ankle
			{
				OFFSET	-11.7	-411.3	35.4
				CHANNELS 3  Xrotation Yrotation Zrotation
				JOINT left_toes
				{
					OFFSET	0	-60	-88.6
					CHANNELS 3  Xrotation Yrotation Zrotation
					JOINT left_foot_ee
					{
						OFFSET	-22.5	-16.5	-42.2
						CHANNELS 3  Xrotation Yrotation Zrotation
						End Site
						{
							OFFSET	1	0	0
						}
					}
				}
			}
		}
	}
	JOINT right_hip
	{
		OFFSET	82.8	-127.5	0.300001
		CHANNELS 3  Xrotation Yrotation Zrotation
		JOINT right_knee
		{
			OFFSET	28.2	-396.7	2.2
			CHANNELS 3  Xrotation Yrotation Zrotation
			JOINT right_ankle
			{
				OFFSET	11.7	-411.3	35.4
				CHANNELS 3  Xrotation Yrotation Zrotation
				JOINT right_toes
				{
					OFFSET	0	-60	-88.6
					CHANNELS 3  Xrotation Yrotation Zrotation
					JOINT right_foot_ee
					{
						OFFSET	22.5	-16.5	-42.2
						CHANNELS 3  Xrotation Yrotation Zrotation
						End Site
						{
							OFFSET	1	0	0
						}
					}
				}
			}
		}
	}
}
MOTION
Frames: 5
Frame Time: 0.02
1041.4 574.639 -1682.42 -11.8204271378 3.31515959741 0.75426529351 4.78798 0.35591 0.829856 4.78831 0.302385 0.85082 4.79252 0.191234 0.882472 4.79159 0.328199 0.8412 4.65015 7.5331 -5.29941 5.19667 17.5491 -5.71686 -0.0 0.0 -0.0 -0.0137538 20.864 2.40838 -65.4671 -61.4586 26.3208 1.1027 -28.6446 0.281542 38.6531 -0.281069 -4.83729 -0.664068 -18.3607 -12.2979 -0.0 0.0 -0.0 9.17008 24.7374 -17.1426 -37.0836 56.9287 -45.3269 1.39875 34.7161 -0.437236 -25.7276 1.57638 -2.8591 2.07353 26.6924 -2.06693 0.0 0.0 0.0 40.5135 7.56141 -4.99463 -0.657628 0.0265195 0.0974357 -7.08206 27.4962 1.11091 14.2285 -0.0 -0.0 -0.0 0.0 -0.0 11.0 19.1812 -2.59369 -32.1445 0.0440323 -4.86873 39.6664 -5.46699 4.82897 -36.8552 0.0 0.0 0.0 0.0 0.0 
1041.4 574.639 -1682.42 -11.825832005 3.73433272636 0.842177825327 4.78798 0.35591 0.829856 4.78831 0.302385 0.85082 4.79252 0.191234 0.882472 4.79159 0.328199 0.8412 4.65015 7.5331 -5.29941 5.19667 17.5491 -5.71686 -0.0 0.0 -0.0 -0.0137538 20.864 2.40838 -65.4671 -61.4586 26.3208 1.1027 -28.6446 0.281542 38.6531 -0.281069 -4.83729 -0.664068 -18.3607 -12.2979 -0.0 0.0 -0.0 9.17008 24.7374 -17.1426 -37.0836 56.9287 -45.3269 1.39875 34.7161 -0.437236 -25.7276 1.57638 -2.8591 2.07353 26.6924 -2.06693 0.0 0.0 0.0 40.5135 7.56141 -4.99463 -0.657628 0.0265195 0.0974357 -7.08206 27.4962 1.11091 14.2285 -0.0 -0.0 -0.0 0.0 -0.0 11.0 19.1812 -2.59369 -32.1445 0.0440323 -4.86873 39.6664 -5.46699 4.82897 -36.8552 0.0 0.0 0.0 0.0 0.0 
1041.4 574.639 -1682.42 -11.8356037054 4.3911118653 0.980099427492 4.78798 0.35591 0.829856 4.78831 0.302385 0.85082 4.79252 0.191234 0.882472 4.79159 0.328199 0.8412 4.65015 7.5331 -5.29941 5.19667 17.5491 -5.71686 -0.0 0.0 -0.0 -0.0137538 20.864 2.40838 -65.4671 -61.4586 26.3208 1.1027 -28.6446 0.281542 38.6531 -0.281069 -4.83729 -0.664068 -18.3607 -12.2979 -0.0 0.0 -0.0 9.17008 24.7374 -17.1426 -37.0836 56.9287 -45.3269 1.39875 34.7161 -0.437236 -25.7276 1.57638 -2.8591 2.07353 26.6924 -2.06693 0.0 0.0 0.0 40.5135 7.56141 -4.99463 -0.657628 0.0265195 0.0974357 -7.08206 27.4962 1.11091 14.2285 -0.0 -0.0 -0.0 0.0 -0.0 11.0 19.1812 -2.59369 -32.1445 0.0440323 -4.86873 39.6664 -5.46699 4.82897 -36.8552 0.0 0.0 0.0 0.0 0.0 
1041.4 574.639 -1682.42 -11.8350341 4.35556983034 0.972629691978 4.78798 0.35591 0.829856 4.78831 0.302385 0.85082 4.79252 0.191234 0.882472 4.79159 0.328199 0.8412 4.65015 7.5331 -5.29941 5.19667 17.5491 -5.71686 -0.0 0.0 -0.0 -0.0137538 20.864 2.40838 -65.4671 -61.4586 26.3208 1.1027 -28.6446 0.281542 38.6531 -0.281069 -4.83729 -0.664068 -18.3607 -12.2979 -0.0 0.0 -0.0 9.17008 24.7374 -17.1426 -37.0836 56.9287 -45.3269 1.39875 34.7161 -0.437236 -25.7276 1.57638 -2.8591 2.07353 26.6924 -2.06693 0.0 0.0 0.0 40.5135 7.56141 -4.99463 -0.657628 0.0265195 0.0974357 -7.08206 27.4962 1.11091 14.2285 -0.0 -0.0 -0.0 0.0 -0.0 11.0 19.1812 -2.59369 -32.1445 0.0440323 -4.86873 39.6664 -5.46699 4.82897 -36.8552 0.0 0.0 0.0 0.0 0.0 
1031.58901863 575.166 -1704.9065988 -11.924795908 4.18879809311 1.17629108831 4.77012 0.3125 1.09564 4.77076 0.242153 1.1133 4.77495 0.0976138 1.13514 4.77326 0.275652 1.10548 3.79592 7.54814 -3.77043 4.1907 16.3125 -3.83078 -0.0 0.0 -0.0 -0.0714952 21.843 2.4355 -64.6399 -62.6785 24.5102 1.09589 -28.4954 0.27828 38.0008 -0.249384 -4.76013 -0.752562 -18.5017 -12.9587 -0.0 0.0 -0.0 9.45175 24.1407 -17.8277 -35.0573 56.7425 -49.0852 1.28523 32.482 -0.374406 -25.693 1.57343 -2.85579 2.06112 27.1942 -1.7458 0.0 0.0 0.0 40.2342 7.67042 -5.03043 0.0805762 -0.00332631 -0.0119177 -10.7437 29.3815 1.71377 15.1284 -0.0 -0.0 -0.0 0.0 -0.0 10.3874 20.0159 -2.35202 -31.7706 0.0278166 -4.81365 40.4414 -6.64681 4.89803 -36.6372 0.0 0.0 0.0 0.0 0.0 
